<svg xmlns="http://www.w3.org/2000/svg" width="119" height="42" viewBox="0 0 119 42" fill="none">
    <path
        d="M8.3851 40.394C-2.78328 34.0299 -2.74884 7.70101 8.21193 1.51847C19.1727 -4.66408 41.9104 9.26554 41.9104 21.1042C41.9104 32.943 19.5535 46.7581 8.3851 40.394Z"
        fill="#FA994D"></path>
    <mask id="mask0_2426_252" style="mask-type:alpha" maskUnits="userSpaceOnUse" x="0" y="0"
        width="42" height="42">
        <path
            d="M8.3851 40.394C-2.78328 34.0299 -2.74884 7.70101 8.21193 1.51847C19.1727 -4.66408 41.9104 9.26554 41.9104 21.1042C41.9104 32.943 19.5535 46.7581 8.3851 40.394Z"
            fill="white"></path>
    </mask>
    <g mask="url(#mask0_2426_252)">
        <path
            d="M8.3851 41.0941C-2.78328 34.73 -2.74884 8.40108 8.21193 2.21854C19.1727 -3.964 41.9104 9.96561 41.9104 21.8043C41.9104 33.643 19.5535 47.4582 8.3851 41.0941Z"
            fill="url(#paint0_linear_2426_252)"></path>
    </g>
    <path
        d="M0.00170041 20.4615C0.0800106 28.5209 2.86334 36.5476 8.3851 39.694C19.4431 45.9953 41.4697 32.514 41.9039 20.7557C41.9082 20.8721 41.9104 20.9883 41.9104 21.1043C41.9104 32.943 19.5535 46.7581 8.3851 40.394C2.70346 37.1565 -0.0788676 28.752 0.00170041 20.4615Z"
        fill="#DB466C"></path>
    <path
        d="M7.87666 16.4021C10.4351 16.4021 12.1122 18.4601 12.1122 20.9297C12.1122 21.0755 12.1037 21.2127 12.0951 21.3499C12.0694 21.5985 11.9154 21.71 11.6844 21.71H5.30759C5.58877 23.1155 6.63234 23.8366 7.93656 23.8366C8.74944 23.8366 9.42543 23.4936 9.79336 23.0134C9.93027 22.8676 10.0586 22.7819 10.264 22.7819L11.3592 22.7733C11.6416 22.7733 11.7956 22.9448 11.6844 23.1849C11.0598 24.5826 9.65646 25.423 7.91089 25.423C5.1813 25.423 3.39294 23.485 3.39294 20.9125C3.39294 18.3743 5.19841 16.4021 7.87666 16.4021ZM5.30058 20.1837H10.253C10.0105 18.7233 8.96987 18.0914 7.86827 18.0914C6.48825 18.0914 5.55214 18.9007 5.30058 20.1837ZM21.7533 16.625C22.0014 16.625 22.1383 16.7622 22.1383 17.0109V24.8142C22.1383 25.0628 22.0014 25.2 21.7533 25.2H20.6751C20.427 25.2 20.2901 25.0628 20.2901 24.8142V23.9694C19.6425 24.8696 18.6359 25.423 17.2868 25.423C14.9594 25.423 13.0342 23.4593 13.0342 20.9125C13.0342 18.3658 14.9594 16.4021 17.2868 16.4021C18.6359 16.4021 19.6425 16.9555 20.2901 17.8557V17.0109C20.2901 16.7622 20.427 16.625 20.6751 16.625H21.7533ZM17.5862 23.6565C19.1264 23.6565 20.2901 22.5075 20.2901 20.9125C20.2901 19.3176 19.1264 18.1685 17.5862 18.1685C16.046 18.1685 14.8822 19.3176 14.8822 20.9125C14.8822 22.5075 16.046 23.6565 17.5862 23.6565ZM25.6956 19.0346C25.6956 20.7582 30.4445 19.5148 30.4445 22.7905C30.4445 24.4797 28.9728 25.423 27.0817 25.423C25.3276 25.423 23.9329 24.5826 23.7446 22.9534C23.719 22.6876 23.873 22.5504 24.1211 22.5504H25.1822C25.4132 22.5504 25.5073 22.679 25.5929 22.8934C25.7383 23.5108 26.3373 23.7594 27.0817 23.7594C27.9802 23.7594 28.5963 23.4422 28.5963 22.7905C28.5963 21.084 23.8473 22.3017 23.8473 19.0346C23.8473 17.3625 25.3191 16.4021 27.0817 16.4021C28.6818 16.4021 30.0595 17.2424 30.2477 18.8717C30.2734 19.1375 30.1194 19.2747 29.8712 19.2747H28.8102C28.5792 19.2747 28.485 19.1461 28.3995 18.9231C28.2626 18.3143 27.6893 18.0656 27.0817 18.0656C26.3116 18.0656 25.6956 18.3829 25.6956 19.0346ZM36.9025 16.9423C36.9709 16.7279 37.125 16.625 37.3389 16.625H38.5111C38.785 16.625 38.9219 16.788 38.8277 17.0624L34.9687 28.3213C34.9002 28.5357 34.7376 28.63 34.5237 28.63H33.3514C33.0776 28.63 32.9407 28.4671 33.0348 28.1927L34.0959 25.0971L30.9384 17.0709C30.8358 16.8051 30.9556 16.625 31.2379 16.625H32.4016C32.6156 16.625 32.761 16.7194 32.838 16.9252L35.02 22.5332L36.9025 16.9423Z"
        fill="white"></path>
    <path
        d="M52.6257 16.6251C52.8739 16.6248 53.0108 16.762 53.0108 17.0106V24.8139C53.0108 27.5579 50.8545 28.8527 48.664 28.8527C46.636 28.8527 44.7193 27.7465 44.4712 25.9029C44.4541 25.6371 44.6081 25.4999 44.8562 25.4999H45.9429C46.1739 25.4999 46.2852 25.6199 46.3536 25.8429C46.559 26.5203 47.3633 27.172 48.664 27.172C50.2726 27.172 51.1967 26.2973 51.1967 24.8139V23.7627C50.5505 24.678 49.5321 25.2514 48.1589 25.2514C45.8315 25.2514 43.9062 23.2877 43.9062 20.8267C43.9062 18.3657 45.8315 16.402 48.1589 16.402C49.5321 16.402 50.5505 16.9753 51.1967 17.8906V17.011C51.1967 16.7623 51.3336 16.6251 51.5818 16.6251H52.6257ZM48.4757 23.519C50.033 23.519 51.1967 22.37 51.1967 20.8265C51.1967 19.283 50.033 18.134 48.4757 18.134C46.9184 18.134 45.7547 19.283 45.7547 20.8265C45.7547 22.37 46.9184 23.519 48.4757 23.519ZM58.9895 16.4021C61.548 16.4021 63.2251 18.4601 63.2251 20.9297C63.2251 21.0755 63.2165 21.2127 63.208 21.3499C63.1823 21.5986 63.0283 21.7101 62.7973 21.7101H56.4205C56.7016 23.1155 57.7452 23.8367 59.0494 23.8367C59.8623 23.8367 60.5383 23.4937 60.9062 23.0135C61.0431 22.8677 61.1715 22.7819 61.3769 22.7819L62.4721 22.7734C62.7545 22.7734 62.9085 22.9449 62.7973 23.185C62.1726 24.5827 60.7693 25.423 59.0238 25.423C56.2942 25.423 54.5058 23.4851 54.5058 20.9126C54.5058 18.3744 56.3113 16.4021 58.9895 16.4021ZM56.4135 20.1837H61.3659C61.1234 18.7234 60.0827 18.0914 58.9811 18.0914C57.6011 18.0914 56.665 18.9007 56.4135 20.1837ZM68.8958 16.4021C70.4874 16.4021 71.7196 17.6198 71.7196 19.6778V24.8142C71.7196 25.0629 71.5826 25.2001 71.3345 25.2001H70.2564C70.0082 25.2001 69.8713 25.0629 69.8713 24.8142V19.7893C69.8713 18.6831 69.2039 18.1343 68.3054 18.1343C67.3385 18.1343 66.4657 18.7088 66.4657 20.278V24.8142C66.4657 25.0629 66.3288 25.2001 66.0807 25.2001H65.0025C64.7544 25.2001 64.6175 25.0629 64.6175 24.8142V17.011C64.6175 16.7623 64.7544 16.6251 65.0025 16.6251H66.0807C66.3288 16.6251 66.4657 16.7623 66.4657 17.011V17.596C67.0137 16.7614 67.8499 16.4021 68.8958 16.4021ZM77.4844 16.4021C80.0429 16.4021 81.72 18.4601 81.72 20.9297C81.72 21.0755 81.7114 21.2127 81.7029 21.3499C81.6772 21.5986 81.5232 21.7101 81.2921 21.7101H74.9153C75.1965 23.1155 76.2401 23.8367 77.5443 23.8367C78.3572 23.8367 79.0332 23.4937 79.4011 23.0135C79.538 22.8677 79.6664 22.7819 79.8717 22.7819L80.967 22.7734C81.2494 22.7734 81.4034 22.9449 81.2921 23.185C80.6675 24.5827 79.2642 25.423 77.5186 25.423C74.789 25.423 73.0007 23.4851 73.0007 20.9126C73.0007 18.3744 74.8062 16.4021 77.4844 16.4021ZM74.9083 20.1837H79.8608C79.6183 18.7234 78.5776 18.0914 77.476 18.0914C76.096 18.0914 75.1599 18.9007 74.9083 20.1837ZM87.0313 16.4965C87.2879 16.4622 87.4248 16.6165 87.4248 16.8652V18.0828C87.4248 18.3229 87.3221 18.4601 87.1424 18.4601C86.0215 18.4859 84.9604 19.1033 84.9604 20.7925V24.8142C84.9604 25.0629 84.8235 25.2001 84.5754 25.2001H83.4972C83.2491 25.2001 83.1122 25.0629 83.1122 24.8142V17.011C83.1122 16.7623 83.2491 16.6251 83.4972 16.6251H84.5754C84.8235 16.6251 84.9604 16.7623 84.9604 17.011V17.9108C85.4131 17.0045 86.1613 16.5899 87.0313 16.4965ZM96.8692 17.011V24.8142C96.8692 25.0629 96.7323 25.2001 96.4841 25.2001H95.406C95.1578 25.2001 95.0209 25.0629 95.0209 24.8142V23.9694C94.3734 24.8696 93.3667 25.423 92.0177 25.423C89.6903 25.423 87.765 23.4594 87.765 20.9126C87.765 18.3658 89.6903 16.4021 92.0177 16.4021C93.3667 16.4021 94.3734 16.9556 95.0209 17.8558V17.011C95.0209 16.7623 95.1578 16.6251 95.406 16.6251H96.4841C96.7323 16.6251 96.8692 16.7623 96.8692 17.011ZM92.317 23.6566C93.8572 23.6566 95.0209 22.5075 95.0209 20.9126C95.0209 19.3176 93.8572 18.1686 92.317 18.1686C90.7768 18.1686 89.6131 19.3176 89.6131 20.9126C89.6131 22.5075 90.7768 23.6566 92.317 23.6566ZM102.685 16.6251C102.934 16.6251 103.07 16.7623 103.07 17.011V18.0228C103.07 18.2715 102.934 18.4087 102.685 18.4087H101.496V24.8142C101.496 25.0629 101.359 25.2001 101.111 25.2001H100.033C99.7847 25.2001 99.6477 25.0629 99.6477 24.8142V18.4087H98.4498C98.2017 18.4087 98.0648 18.2715 98.0648 18.0228V17.011C98.0648 16.7623 98.2017 16.6251 98.4498 16.6251H99.6477V14.267C99.6477 14.0183 99.7847 13.8811 100.033 13.8811H101.111C101.359 13.8811 101.496 14.0183 101.496 14.267V16.6251H102.685ZM108.057 25.423C105.55 25.423 103.539 23.4594 103.539 20.9126C103.539 18.3658 105.55 16.4021 108.057 16.4021C110.564 16.4021 112.575 18.3658 112.575 20.9126C112.575 23.4594 110.564 25.423 108.057 25.423ZM108.057 23.6223C109.563 23.6223 110.726 22.4732 110.726 20.9126C110.726 19.3519 109.563 18.2029 108.057 18.2029C106.551 18.2029 105.387 19.3519 105.387 20.9126C105.387 22.4732 106.551 23.6223 108.057 23.6223ZM117.98 16.4965C118.237 16.4622 118.373 16.6165 118.373 16.8652V18.0828C118.373 18.3229 118.271 18.4601 118.091 18.4601C116.97 18.4859 115.909 19.1033 115.909 20.7925V24.8142C115.909 25.0629 115.772 25.2001 115.524 25.2001H114.446C114.198 25.2001 114.061 25.0629 114.061 24.8142V17.011C114.061 16.7623 114.198 16.6251 114.446 16.6251H115.524C115.772 16.6251 115.909 16.7623 115.909 17.011V17.9108C116.362 17.0045 117.11 16.5899 117.98 16.4965Z"
        fill="#363E4E"></path>
    <defs>
        <linearGradient id="paint0_linear_2426_252" x1="20.9552" y1="42.7" x2="20.9552"
            y2="0.700073" gradientUnits="userSpaceOnUse">
            <stop stop-color="#FFA246"></stop>
            <stop offset="1" stop-color="#E14A53"></stop>
        </linearGradient>
    </defs>
</svg>